<?xml version="1.0" encoding="utf-8"?>
<!-- Generator: Adobe Illustrator 19.0.0, SVG Export Plug-In . SVG Version: 6.00 Build 0)  -->
<svg version="1.1" id="Capa_1" xmlns="http://www.w3.org/2000/svg" xmlns:xlink="http://www.w3.org/1999/xlink" x="0px" y="0px"
	 viewBox="-113 236.4 296.5 297.4" style="enable-background:new -113 236.4 296.5 297.4;" xml:space="preserve">
<style type="text/css">
	.st0{fill:#01BA87;}
	.st1{fill:#ED7F35;}
	.st2{fill:#4736EA;}
	.st3{fill:#FD2344;}
	.st4{fill:#D0E229;}
	.st5{fill:#8129C1;}
	.st6{fill:#EAC14E;}
	.st7{fill:#F932EB;}
	.st8{fill:#FDFDFD;}
</style>
<g>
	<path class="st0" d="M174.1,385.1c-1.3,0-2.6-0.1-3.9-0.1c-38.5,0-77.1,0-115.6,0.1c-0.3-5.5-2.3-10.3-6.1-14.2
		c10.4-10.3,20.8-20.6,31.1-30.9c17.8-17.7,35.6-35.5,53.4-53.2c0.5,0.4,1,0.8,1.4,1.2C154.8,308.8,174.1,341,174.1,385.1"/>
	<path class="st1" d="M34.8,524.4c0-1.3,0.1-2.6,0.1-3.9c-0.4-38.5-0.8-77-1.1-115.6c5.5-0.4,10.3-2.4,14.2-6.3
		c10.4,10.3,20.8,20.6,31.2,30.9c17.9,17.6,35.8,35.3,53.7,52.8c-0.4,0.5-0.8,1-1.2,1.4C110.9,504.3,78.8,524,34.8,524.4"/>
	<path class="st2" d="M54.6,385c38.5,0,77.1,0,115.6-0.1c1.3,0,2.6,0.1,3.9,0.1c0,4.1,0,8.1,0,12.1c-1,0.6-0.6,1.7-0.7,2.5
		c-2,17.6-6.9,34.5-15.3,50.1c-6.6,12.4-14.7,23.9-25.1,33.6c-18.5-18.5-36.9-37-55.5-55.5c-0.6-0.6-1.1-1.4-2.1-1.7
		c-9-9-17.9-18-26.9-27C52.3,395.2,54.3,390.5,54.6,385z"/>
	<path class="st3" d="M48.6,246.7c8.6,0.9,17,2.4,25.3,4.9c22.6,6.7,42.4,18.1,59.1,34.9c-17.8,17.8-35.6,35.5-53.4,53.2
		c-10.4,10.3-20.8,20.7-31.1,30.9c-4-3.6-8.7-5.3-14-5.7c0-12.7-0.1-25.6-0.1-38.3c0.1-1.3,0.2-2.6,0.2-3.9
		c0-25.6,0.1-51.1,0.1-76.7"/>
	<path class="st4" d="M34.6,523.9c-3.8,0-7.7,0-11.5,0c-0.6-1.1-1.6-0.6-2.4-0.7c-17.7-2-34.6-7-50.4-15.4
		c-12.4-6.6-23.8-14.8-33.5-25c14.6-14.6,29.2-29.2,43.9-43.9c13.3-13.3,26.5-26.6,39.7-40c3.8,3.7,8.6,5.7,13.9,6.2
		c0,11.5,0,23,0,34.5c0,1.3-0.2,2.6,0.4,3.8C34.6,470.2,34.6,497.1,34.6,523.9z"/>
	<path class="st5" d="M-103.6,385.1c0-4.2,0-8.5,0-12.7c1-0.5,0.6-1.4,0.8-2.1c1.5-12.9,4.5-25.4,9.5-37.5
		c7-17.2,16.9-32.6,30.2-45.5c19,19,37.9,38,56.9,56.9c8.8,8.9,17.6,17.8,26.5,26.7c-2.9,4.3-5.4,8.7-5.5,14.2
		c-11.9,0-23.8-0.1-35.7,0C-48.5,385-76.1,385-103.6,385.1z"/>
	<path class="st6" d="M-63.5,287.7c3-3,6.6-6.6,9.6-9.6c1,0.3,1.4-0.5,2-1c10.2-8.1,21.2-14.7,33.2-19.7c17.2-7.1,35-10.9,53.7-10.7
		c-0.1,26.8-0.2,53.7-0.3,80.5c-0.1,12.5-0.2,25.1-0.2,37.6c-5.1,1-10.6,3-14.5,6.6c-8.4-8.4-16.1-17.5-24.6-25.9
		C-24,326.1-44.1,307.2-63.5,287.7z"/>
	<path class="st7" d="M-103.6,385.1c27.5,0,55.1-0.1,82.6-0.1c11.9,0,23.8,0,35.7,0c0.3,5.3,2.1,9.9,5.6,13.9
		c-13.2,13.3-26.5,26.6-39.7,40c-14.6,14.6-29.2,29.3-43.9,43.9c-0.6-0.5-1.2-1.1-1.8-1.6c-19.7-20.9-32-45.5-36.8-73.8
		c-0.5-3.2-0.4-6.6-1.7-9.6C-103.6,393.5-103.6,389.3-103.6,385.1z"/>
	<path class="st8" d="M20.3,398.9c-3.5-4-5.3-8.6-5.6-13.9c0.2-5.4,2.6-9.8,5.5-14.2c4.3-3.1,8.8-5.6,14.3-5.8
		c5.3,0.5,10,2.1,14,5.7c3.8,4,5.8,8.8,6.1,14.2c-0.3,5.5-2.3,10.3-6,14.3c-4.1,3.7-8.9,5.5-14.4,5.7
		C28.9,404.5,24.2,402.6,20.3,398.9z"/>
</g>
</svg>
